<?xml version="1.0" encoding="utf-8"?>
<!-- Generator: Adobe Illustrator 18.0.0, SVG Export Plug-In . SVG Version: 6.00 Build 0)  -->
<!DOCTYPE svg PUBLIC "-//W3C//DTD SVG 1.1//EN" "http://www.w3.org/Graphics/SVG/1.1/DTD/svg11.dtd">
<svg version="1.1"
	 id="Layer_1" xmlns:inkscape="http://www.inkscape.org/namespaces/inkscape" xmlns:svg="http://www.w3.org/2000/svg" xmlns:cc="http://creativecommons.org/ns#" xmlns:rdf="http://www.w3.org/1999/02/22-rdf-syntax-ns#" xmlns:sodipodi="http://sodipodi.sourceforge.net/DTD/sodipodi-0.dtd" xmlns:dc="http://purl.org/dc/elements/1.1/"
	 xmlns="http://www.w3.org/2000/svg" xmlns:xlink="http://www.w3.org/1999/xlink" x="0px" y="0px" viewBox="0 0 512 512"
	 enable-background="new 0 0 512 512" xml:space="preserve">
<g transform="translate(0,-952.36218)">
	<path d="M385.7,978.4c-2,0.1-3.9,0.2-5.9,0.5c-15.7,1.9-32.2,9.1-47.2,20.7c-4.1,2.6-5.3,8-2.7,12c2.6,4.1,8,5.3,12,2.7
		c0.4-0.3,0.9-0.6,1.3-1c12.9-9.9,26.8-15.8,38.7-17.2c11.9-1.4,21.3,1.3,27.6,7.5c7.1,7.1,9.6,18.5,6.6,32.6
		c-3,14.1-11.6,30.3-25.5,44.1c-13.8,13.8-30,22.6-44.1,25.6c-14.1,3-25.5,0.4-32.6-6.7c-2-2-3.7-4.2-4.9-6.8
		c-1.5-4.6-6.5-7.1-11-5.5s-7.1,6.5-5.5,11c0.2,0.7,0.5,1.3,0.9,1.9c2,4.3,4.8,8.3,8.2,11.7c5.9,5.9,13.2,9.6,21.2,11.5
		c-0.4,0.4-0.8,0.9-1.2,1.3c-9.1,9.1-23.6,9.1-32.7,0c-9.1-9.1-9.1-23.6,0-32.7c9.1-9.1,23.6-9.1,32.7,0c0.9,0.9,1.8,2,2.5,3
		c2.8,3.9,8.3,4.8,12.2,2c3.9-2.8,4.8-8.3,2-12.2c-1.3-1.8-2.8-3.5-4.4-5.1c-7.9-7.9-18.3-11.8-28.7-11.8
		c-10.4,0-20.9,3.9-28.8,11.8c-15.8,15.8-15.8,41.7,0,57.5c15.8,15.8,41.7,15.8,57.5,0c3.7-3.7,6.5-8,8.5-12.5
		c2.6-0.3,5.2-0.6,7.8-1.2c8.3-1.7,16.7-4.9,24.9-9.3v47.5l-153.9,153.9L98.2,1192l153.8-153.8h78.5l38.5,38.4
		c3.2,3.6,8.7,4,12.3,0.9c3.6-3.2,4-8.7,0.9-12.3c-0.3-0.3-0.6-0.6-0.9-0.9l-40.9-40.9c-1.6-1.7-3.9-2.6-6.2-2.6h-85.8
		c-2.3,0-4.6,1-6.2,2.6L79.7,1185.9c-3.4,3.4-3.4,8.9,0,12.3L215,1333.5c3.4,3.4,8.9,3.4,12.3,0l162.6-162.6
		c1.7-1.6,2.6-3.9,2.6-6.2v-62.6c3.6-2.9,7.1-5.9,10.5-9.3c16-16,26.4-34.7,30.2-52.8c3.8-18.1,0.9-36.4-11.4-48.6
		c-8.1-8.1-18.8-12.2-30.4-12.9C389.6,978.3,387.6,978.3,385.7,978.4L385.7,978.4z M188.7,1149.7c-4.8,0.5-8.3,4.7-7.9,9.5
		c0.2,2.1,1.1,4,2.6,5.4l65.1,65.1c3.2,3.6,8.7,4,12.3,0.9c3.6-3.2,4-8.7,0.9-12.3c-0.3-0.3-0.6-0.6-0.9-0.9l-65.1-65.1
		C193.9,1150.4,191.3,1149.4,188.7,1149.7L188.7,1149.7z"/>
</g>
</svg>
