<?xml version="1.0" encoding="utf-8"?>
<!-- Generator: Adobe Illustrator 18.0.0, SVG Export Plug-In . SVG Version: 6.00 Build 0)  -->
<!DOCTYPE svg PUBLIC "-//W3C//DTD SVG 1.1//EN" "http://www.w3.org/Graphics/SVG/1.1/DTD/svg11.dtd">
<svg version="1.1" id="Layer_1" xmlns="http://www.w3.org/2000/svg" xmlns:xlink="http://www.w3.org/1999/xlink" x="0px" y="0px"
	 viewBox="0 0 512 512" enable-background="new 0 0 512 512" xml:space="preserve">
<g>
	<path d="M242.7,204.3c1.2-2.1,2.9-4.2,4.1-5.9c1.8-2.5,1.7-4.2,1.7-4.2c1,1.8,0.9,3.7,0.8,5.2c-0.3,5,1,5,1,5l2.6-3.1
		c0.9,7.6,5,7.5,2.4,12.4c-0.9,1.6-2,2.6-3.1,3.2h0c0.1-0.2,0.3-0.4,0.4-0.6c1.4-2.7-0.8-1.3-1.4-5.6l-1.4,1.7c0,0-3.2-4.5-2.7-8
		c0,0-1.7,2.7-2.5,5.2c-0.7,2-1.9,4.9,0.8,7.6C237.1,214.2,240.8,207.7,242.7,204.3z"/>
</g>
</svg>
