<?xml version="1.0" encoding="utf-8"?>
<!-- Generator: Adobe Illustrator 18.0.0, SVG Export Plug-In . SVG Version: 6.00 Build 0)  -->
<!DOCTYPE svg PUBLIC "-//W3C//DTD SVG 1.1//EN" "http://www.w3.org/Graphics/SVG/1.1/DTD/svg11.dtd">
<svg version="1.1" id="Layer_1" xmlns="http://www.w3.org/2000/svg" xmlns:xlink="http://www.w3.org/1999/xlink" x="0px" y="0px"
	 viewBox="0 0 512 512" enable-background="new 0 0 512 512" xml:space="preserve">
<path d="M247.5,253.5v-4.4c0-1.1,0.9-2.1,2-2.1h4.4v-1c0-1.4-1.1-2.5-2.5-2.5H240c-1.4,0-2.5,1.1-2.5,2.5v5.4c0,1.4,1.1,2.5,2.5,2.5
	h1.9c0,1,0,2,0,3c0,0.2,0.2,0.3,0.4,0.1c0.9-1,1.8-2.1,2.7-3.1h2.7C247.5,253.9,247.5,253.7,247.5,253.5z"/>
<path d="M248,249.4v4.9c0,1,0.8,1.9,1.8,1.9h4.7c0.7,0.8,1.3,1.5,2,2.3c0.1,0.1,0.3,0,0.3-0.1c0-0.7,0-1.5,0-2.2h3
	c1,0,1.8-0.8,1.8-1.9v-4.9c0-1-0.8-1.9-1.8-1.9h-9.9C248.8,247.5,248,248.4,248,249.4z"/>
</svg>
